/* XPM */
static char * server_disconnected_big_xpm[] = {
"32 32 379 2",
"  	c None",
". 	c #939BA5",
"+ 	c #899099",
"@ 	c #7B828B",
"# 	c #717880",
"$ 	c #8A919A",
"% 	c #939AA4",
"& 	c #888F98",
"* 	c #7A828A",
"= 	c #70787F",
"- 	c #697077",
"; 	c #929AA3",
"> 	c #62696E",
", 	c #8A9199",
"' 	c #707880",
") 	c #697078",
"! 	c #62696F",
"~ 	c #5D6368",
"{ 	c #646A70",
"] 	c #939AA3",
"^ 	c #9299A3",
"/ 	c #63696F",
"( 	c #522024",
"_ 	c #642327",
": 	c #662327",
"< 	c #592325",
"[ 	c #707780",
"} 	c #646A6F",
"| 	c #291F20",
"1 	c #562024",
"2 	c #C02831",
"3 	c #BF2730",
"4 	c #BC272F",
"5 	c #BA282F",
"6 	c #B8292E",
"7 	c #B82A2E",
"8 	c #6B2627",
"9 	c #301F20",
"0 	c #312D2F",
"a 	c #6A7178",
"b 	c #4A1E22",
"c 	c #A12C33",
"d 	c #CA3F44",
"e 	c #C74D4D",
"f 	c #C54E4B",
"g 	c #C34443",
"h 	c #BE3338",
"i 	c #BA2830",
"j 	c #B6282F",
"k 	c #B4292E",
"l 	c #B32A2E",
"m 	c #B72B2E",
"n 	c #A52B2D",
"o 	c #5F2424",
"p 	c #271C1E",
"q 	c #4F5357",
"r 	c #6F767E",
"s 	c #621F25",
"t 	c #CD615F",
"u 	c #CD6862",
"v 	c #C95D58",
"w 	c #C7524D",
"x 	c #C03639",
"y 	c #BC2A31",
"z 	c #B8262F",
"A 	c #B5292E",
"B 	c #B22A2D",
"C 	c #B12B2E",
"D 	c #B02C2D",
"E 	c #822828",
"F 	c #2F2020",
"G 	c #44474B",
"H 	c #5B2126",
"I 	c #D1736E",
"J 	c #CF6F69",
"K 	c #CB6460",
"L 	c #C85A55",
"M 	c #C54F4B",
"N 	c #C34141",
"O 	c #BF3337",
"P 	c #BD2830",
"Q 	c #BA252F",
"R 	c #B8262E",
"S 	c #B6282E",
"T 	c #AF2A2E",
"U 	c #AD2C2D",
"V 	c #852929",
"W 	c #2A1E1F",
"X 	c #3E1F22",
"Y 	c #C3333B",
"Z 	c #D27B78",
"` 	c #D07670",
" .	c #CE6C67",
"..	c #CA615D",
"+.	c #C85854",
"@.	c #C54D4A",
"#.	c #C23F3F",
"$.	c #BE3136",
"%.	c #BC2730",
"&.	c #BA262F",
"*.	c #B92730",
"=.	c #B72830",
"-.	c #B5292F",
";.	c #B32A2F",
">.	c #B52C2F",
",.	c #672526",
"'.	c #282324",
").	c #A0232C",
"!.	c #D06F6E",
"~.	c #D37F7A",
"{.	c #D0746E",
"].	c #CD6B66",
"^.	c #CA605B",
"/.	c #C75651",
"(.	c #C44A47",
"_.	c #C13C3D",
":.	c #BE2F34",
"<.	c #BD272F",
"[.	c #BE2931",
"}.	c #BF2A31",
"|.	c #BF2B31",
"1.	c #BC2930",
"2.	c #B92930",
"3.	c #B72A30",
"4.	c #B02B30",
"5.	c #371F21",
"6.	c #591E23",
"7.	c #D5847F",
"8.	c #D27B76",
"9.	c #CF726D",
"0.	c #CD6864",
"a.	c #CA5E59",
"b.	c #C75450",
"c.	c #C34745",
"d.	c #C13A3C",
"e.	c #C02F34",
"f.	c #BF2A30",
"g.	c #C02C31",
"h.	c #C12D33",
"i.	c #C22E34",
"j.	c #C33035",
"k.	c #C23034",
"l.	c #C12F33",
"m.	c #BF2C33",
"n.	c #BC2B32",
"o.	c #BF2B32",
"p.	c #82262B",
"q.	c #881D25",
"r.	c #D4817D",
"s.	c #D27975",
"t.	c #CF706B",
"u.	c #C6524E",
"v.	c #C44544",
"w.	c #C23B3C",
"x.	c #C23135",
"y.	c #C22E31",
"z.	c #C33033",
"A.	c #C43135",
"B.	c #C53336",
"C.	c #C63438",
"D.	c #C73538",
"E.	c #C63537",
"F.	c #C53435",
"G.	c #C23134",
"H.	c #C03034",
"I.	c #361F21",
"J.	c #A0232B",
"K.	c #D27A77",
"L.	c #D37F7B",
"M.	c #D17773",
"N.	c #CE6F69",
"O.	c #CC6460",
"P.	c #C95A55",
"Q.	c #C6504D",
"R.	c #C54744",
"S.	c #C53D3C",
"T.	c #C53436",
"U.	c #C53233",
"V.	c #C63337",
"W.	c #C73639",
"X.	c #C8383A",
"Y.	c #C9393B",
"Z.	c #CA3A3B",
"`.	c #CA3A3C",
" +	c #CA3B3A",
".+	c #C93B39",
"++	c #C63737",
"@+	c #C73437",
"#+	c #592527",
"$+	c #431F23",
"%+	c #D27A78",
"&+	c #D37E7B",
"*+	c #D07671",
"=+	c #CE6D68",
"-+	c #CB635E",
";+	c #C7504C",
">+	c #C74744",
",+	c #C73F3D",
"'+	c #C73837",
")+	c #C73536",
"!+	c #C9383A",
"~+	c #CA3B3B",
"{+	c #CB3C3D",
"]+	c #CC3D3E",
"^+	c #CD3E3F",
"/+	c #CE3E3F",
"(+	c #CD413D",
"_+	c #CB3E3B",
":+	c #CA3C3A",
"<+	c #7F2D2E",
"[+	c #4A2024",
"}+	c #B4202A",
"|+	c #CF6E6D",
"1+	c #D37D79",
"2+	c #D0746F",
"3+	c #CB615C",
"4+	c #C85853",
"5+	c #C8504C",
"6+	c #C94845",
"7+	c #C9403D",
"8+	c #C73839",
"9+	c #CF4040",
"0+	c #D04241",
"a+	c #D14342",
"b+	c #D14441",
"c+	c #D1453F",
"d+	c #CF423E",
"e+	c #993533",
"f+	c #4B2024",
"g+	c #B6232D",
"h+	c #C0373F",
"i+	c #D27E79",
"j+	c #D0726D",
"k+	c #CC6964",
"l+	c #CA5F5A",
"m+	c #C95853",
"n+	c #CA514C",
"o+	c #CA4845",
"p+	c #C83A3A",
"q+	c #CA383B",
"r+	c #CC3C3D",
"s+	c #CE3F3F",
"t+	c #D14241",
"u+	c #D24542",
"v+	c #D54644",
"w+	c #D54745",
"x+	c #D64845",
"y+	c #D44744",
"z+	c #D54843",
"A+	c #D34742",
"B+	c #9E3937",
"C+	c #452023",
"D+	c #B9232D",
"E+	c #BF393F",
"F+	c #CC6764",
"G+	c #C95B57",
"H+	c #C95350",
"I+	c #C74242",
"J+	c #C63639",
"K+	c #CF3F3F",
"L+	c #D14341",
"M+	c #D44743",
"N+	c #D64846",
"O+	c #D84A47",
"P+	c #DA4C49",
"Q+	c #D94C49",
"R+	c #D84B47",
"S+	c #DA4C47",
"T+	c #DB4C47",
"U+	c #903835",
"V+	c #3A2022",
"W+	c #A5242C",
"X+	c #B9222D",
"Y+	c #BD2D35",
"Z+	c #C03136",
"`+	c #C12D32",
" @	c #C43034",
".@	c #C83739",
"+@	c #CB3B3C",
"@@	c #CE3F3E",
"#@	c #D44644",
"$@	c #D74946",
"%@	c #DC4E4B",
"&@	c #DE504D",
"*@	c #DE4F4D",
"=@	c #DD4E4A",
"-@	c #E14E49",
";@	c #6E3230",
">@	c #92232B",
",@	c #BB252F",
"'@	c #B9242F",
")@	c #BA242E",
"!@	c #BC262F",
"~@	c #C22F34",
"{@	c #C63437",
"]@	c #C9393A",
"^@	c #D04140",
"/@	c #D34643",
"(@	c #DD4F4C",
"_@	c #E0524E",
":@	c #E25550",
"<@	c #E25551",
"[@	c #E15450",
"}@	c #E0514D",
"|@	c #E9534E",
"1@	c #6A2227",
"2@	c #BA252E",
"3@	c #BC2830",
"4@	c #C02C32",
"5@	c #D54844",
"6@	c #D94B48",
"7@	c #E0534F",
"8@	c #E35652",
"9@	c #E65954",
"0@	c #E75A55",
"a@	c #E35551",
"b@	c #E65451",
"c@	c #2F1F21",
"d@	c #AD242D",
"e@	c #BA242F",
"f@	c #BD2931",
"g@	c #C02D32",
"h@	c #C43236",
"i@	c #D24443",
"j@	c #DB4D4A",
"k@	c #DF514D",
"l@	c #E95C57",
"m@	c #EB5E59",
"n@	c #532C2C",
"o@	c #602126",
"p@	c #C12E33",
"q@	c #C53236",
"r@	c #C8373A",
"s@	c #CB3B3D",
"t@	c #D34543",
"u@	c #E0524F",
"v@	c #E45752",
"w@	c #E85B56",
"x@	c #EC5F5A",
"y@	c #EF625B",
"z@	c #EC5F59",
"A@	c #A34541",
"B@	c #261F20",
"C@	c #C32530",
"D@	c #D74947",
"E@	c #EF615C",
"F@	c #ED5F59",
"G@	c #3C2626",
"H@	c #C22831",
"I@	c #E85C57",
"J@	c #EB5D58",
"K@	c #442929",
"L@	c #241F20",
"M@	c #792429",
"N@	c #B92B31",
"O@	c #CD3E3E",
"P@	c #D54744",
"Q@	c #E45651",
"R@	c #C34F4B",
"S@	c #332424",
"T@	c #4C2224",
"U@	c #902A2E",
"V@	c #CC393B",
"W@	c #D23E3E",
"X@	c #D44141",
"Y@	c #D84644",
"Z@	c #DC4A47",
"`@	c #E14E4B",
" #	c #B44644",
".#	c #733534",
"+#	c #3F2224",
"@#	c #592728",
"##	c #762D2E",
"$#	c #883232",
"%#	c #8D3534",
"&#	c #833433",
"*#	c #69302F",
"=#	c #4E2A2A",
"-#	c #302223",
"                                                        . + @ # ",
"                                                    $ % & * = - ",
"                                                  $ ;   * = - > ",
"                                                , %   * ' ) ! ~ ",
"                                              +   & * ' )     { ",
"                                            + ] + * ' )     {   ",
"                                          + ^   @ ' ) /   {     ",
"                      ( _ : <           $ %   @ [ ) /   }       ",
"              | 1   2 3 4 5 6 7   8 9 0   + @ # a     }         ",
"            b c d e f g h i j k l m n o p q r a     }           ",
"          s   t u v w g x y z j A B C D E F G /   }             ",
"        H   I J K L M N O P Q R S k l T U V W   }               ",
"      X Y Z `  ...+.@.#.$.%.Q Q &.*.=.-.;.>.,.'.                ",
"      ).!.~.{.].^./.(._.:.%.<.[.}.|.[.1.2.3.4.5.                ",
"    6.  7.8.9.0.a.b.c.d.e.f.g.h.i.j.k.l.m.n.o.p.                ",
"    q.  r.s.t.u v u.v.w.x.y.z.A.B.C.D.E.F.G.H.                  ",
"  I.J.K.L.M.N.O.P.Q.R.S.T.U.V.W.X.Y.Z.`. +.+++@+#+              ",
"  $+  %+&+*+=+-++.;+>+,+'+)+!+~+{+]+^+/+/+(+_+:+<+              ",
"  [+}+|+1+2+].3+4+5+6+7+8+Y.{+^+9+0+a+a+a+b+c+d+e+              ",
"  f+g+h+i+j+k+l+m+n+o+p+q+r+s+t+u+v+w+x+w+y+z+A+B+              ",
"  C+  D+E+F+K G+H+I+J+X.{+K+L+M+N+O+P+P+Q+R+S+T+U+              ",
"  V+W+Q D+X+Y+Z+`+ @.@+@@@L+#@$@P+%@&@&@*@%@=@-@;@              ",
"    >@,@'@)@!@|.~@{@]@]+^@/@$@P+(@_@:@<@[@_@}@|@                ",
"    1@  '@2@3@4@A.W.`./+a+5@6@(@7@8@9@0@9@a@b@                  ",
"    c@d@e@Q f@g@h@.@+@s+i@$@j@k@a@0@l@m@l@9@  n@                ",
"      o@  Q f@p@q@r@s@9+t@O+%@u@v@w@x@y@z@  A@B@                ",
"          C@f@p@q@.@+@9+t@D@%@u@v@w@x@E@F@  G@                  ",
"        |   H@g@h@.@+@s+i@$@P+k@<@9@I@J@  K@                    ",
"          L@M@N@A.D.Z.O@a+P@6@%@u@Q@  R@S@                      ",
"              T@U@  V@W@X@Y@Z@`@   #.#                          ",
"                  +#@###$#%#&#*#=#-#                            ",
"                                                                "};
